<?xml version="1.0" encoding="UTF-8" standalone="no"?>
<svg
   xmlns:dc="http://purl.org/dc/elements/1.1/"
   xmlns:cc="http://creativecommons.org/ns#"
   xmlns:rdf="http://www.w3.org/1999/02/22-rdf-syntax-ns#"
   xmlns:svg="http://www.w3.org/2000/svg"
   xmlns="http://www.w3.org/2000/svg"
   xmlns:sodipodi="http://sodipodi.sourceforge.net/DTD/sodipodi-0.dtd"
   xmlns:inkscape="http://www.inkscape.org/namespaces/inkscape"
   height="498"
   viewBox="0 0 124.5 124.5"
   width="498"
   version="1.1"
   id="svg913"
   sodipodi:docname="sun.svg"
   inkscape:version="1.0.1 (3bc2e813f5, 2020-09-07)">
  <metadata
     id="metadata919">
    <rdf:RDF>
      <cc:Work
         rdf:about="">
        <dc:format>image/svg+xml</dc:format>
        <dc:type
           rdf:resource="http://purl.org/dc/dcmitype/StillImage" />
      </cc:Work>
    </rdf:RDF>
  </metadata>
  <defs
     id="defs917" />
  <sodipodi:namedview
     pagecolor="#ffffff"
     bordercolor="#666666"
     borderopacity="1"
     objecttolerance="10"
     gridtolerance="10"
     guidetolerance="10"
     inkscape:pageopacity="0"
     inkscape:pageshadow="2"
     inkscape:window-width="1920"
     inkscape:window-height="1017"
     id="namedview915"
     showgrid="false"
     inkscape:zoom="1.6601562"
     inkscape:cx="249"
     inkscape:cy="249.012"
     inkscape:window-x="4"
     inkscape:window-y="-8"
     inkscape:window-maximized="1"
     inkscape:current-layer="svg913" />
  <g
     id="g911"
     transform="translate(-1.75,-1.747)">
    <circle
       cx="64"
       cy="63.997002"
       fill="#fedb41"
       r="39.247002"
       id="circle887" />
    <g
       fill="#fea832"
       id="g909">
      <path
         d="M 95.247,65.747 A 1.749,1.749 0 0 1 93.5,64 29.53,29.53 0 0 0 64,34.5 1.75,1.75 0 0 1 64,31 33.035,33.035 0 0 1 97,64 1.749,1.749 0 0 1 95.247,65.747 Z"
         id="path889" />
      <g
         id="g907">
        <path
           d="m 64,16.75 a 47.252,47.252 0 0 1 8.5,0.781 c 0.038,-0.545 0.063,-1.1 0.063,-1.658 C 72.562,8.072 64,1.747 64,1.747 c 0,0 -8.563,6.325 -8.563,14.126 0,0.562 0.026,1.113 0.064,1.658 A 47.243,47.243 0 0 1 64,16.75 Z"
           id="path891" />
        <path
           d="m 64,111.244 a 47.343,47.343 0 0 0 8.5,-0.78 c 0.038,0.544 0.063,1.095 0.063,1.657 0,7.8 -8.562,14.126 -8.562,14.126 0,0 -8.563,-6.324 -8.563,-14.126 0,-0.562 0.026,-1.113 0.064,-1.657 a 47.335,47.335 0 0 0 8.498,0.78 z"
           id="path893" />
        <path
           d="m 97.409,30.588 a 47.349,47.349 0 0 1 5.457,6.562 c 0.413,-0.358 0.82,-0.73 1.217,-1.127 5.517,-5.517 3.934,-16.043 3.934,-16.043 0,0 -10.526,-1.58 -16.043,3.934 -0.4,0.4 -0.769,0.8 -1.127,1.217 a 47.349,47.349 0 0 1 6.562,5.457 z"
           id="path895" />
        <path
           d="m 30.591,97.406 a 47.232,47.232 0 0 0 6.562,5.457 c -0.358,0.413 -0.73,0.82 -1.127,1.217 -5.517,5.517 -16.043,3.934 -16.043,3.934 0,0 -1.583,-10.526 3.934,-16.043 0.4,-0.4 0.8,-0.769 1.217,-1.127 a 47.291,47.291 0 0 0 5.457,6.562 z"
           id="path897" />
        <path
           d="m 111.247,64 a 47.335,47.335 0 0 1 -0.78,8.5 c 0.544,0.038 1.095,0.064 1.657,0.064 7.8,0 14.126,-8.563 14.126,-8.563 0,0 -6.325,-8.562 -14.126,-8.562 -0.562,0 -1.113,0.025 -1.657,0.063 a 47.343,47.343 0 0 1 0.78,8.498 z"
           id="path899" />
        <path
           d="m 16.753,64 a 47.335,47.335 0 0 0 0.78,8.5 c -0.544,0.038 -1.1,0.064 -1.657,0.064 C 8.075,72.56 1.75,64 1.75,64 c 0,0 6.325,-8.562 14.126,-8.562 0.562,0 1.113,0.025 1.657,0.063 A 47.343,47.343 0 0 0 16.753,64 Z"
           id="path901" />
        <path
           d="m 97.409,97.406 a 47.349,47.349 0 0 1 -6.562,5.457 c 0.358,0.413 0.73,0.82 1.127,1.217 5.517,5.517 16.043,3.934 16.043,3.934 0,0 1.583,-10.526 -3.934,-16.043 -0.4,-0.4 -0.8,-0.769 -1.217,-1.127 a 47.291,47.291 0 0 1 -5.457,6.562 z"
           id="path903" />
        <path
           d="M 30.591,30.588 A 47.349,47.349 0 0 0 25.134,37.15 C 24.721,36.792 24.314,36.42 23.917,36.023 18.4,30.506 19.983,19.98 19.983,19.98 c 0,0 10.526,-1.58 16.043,3.934 0.4,0.4 0.769,0.8 1.127,1.217 a 47.291,47.291 0 0 0 -6.562,5.457 z"
           id="path905" />
      </g>
    </g>
  </g>
</svg>
